<svg xmlns="http://www.w3.org/2000/svg" width="50" height="50" fill="none"><rect width="50" height="50" fill="#E54D25" rx="15"/><path fill="#fff" fill-rule="evenodd" d="M23.207 34c3.215 0 5.935-2.442 5.935-6.42 0-3.979-2.72-6.398-5.935-6.398-1.35 0-2.384.34-3.126 1.063V17H15v16.774h4.834v-1.017c.742.836 1.844 1.243 3.373 1.243Zm-1.215-3.979c-1.124 0-2-.836-2-2.441s.876-2.42 2-2.42c1.125 0 2.002.815 2.002 2.42s-.877 2.441-2.002 2.441ZM36 31.061C36 32.78 34.718 34 33.032 34s-2.968-1.22-2.968-2.939c0-1.74 1.282-2.893 2.968-2.893S36 29.32 36 31.06Z" clip-rule="evenodd"/></svg>