<svg xmlns="http://www.w3.org/2000/svg" width="50" height="50" fill="none"><rect width="50" height="50" fill="#4E1853" rx="15"/><path fill="#F94F4F" fill-rule="evenodd" d="M38.607 21.814h-1.964c-.094.516-.283.93-.567 1.243-.284.312-.696.468-1.236.468-.486 0-1.013-.13-1.58-.387a52.885 52.885 0 0 1-1.845-.886 14.569 14.569 0 0 0-2.198-.875c-.804-.251-1.685-.377-2.645-.377-1.729 0-3.09.733-4.083 2.2C21.497 24.664 21 26.653 21 29.164h4.357c.094-.502.307-.91.638-1.222.33-.312.773-.468 1.327-.468.46 0 .966.126 1.52.377.554.25 1.175.546 1.864.886.69.339 1.449.634 2.28.885.83.251 1.732.377 2.705.377 1.003 0 1.878-.275 2.624-.824C36.575 34.307 31.719 38 26 38c-7.18 0-13-5.82-13-13s5.82-13 13-13c6.08 0 11.186 4.175 12.607 9.814Z" clip-rule="evenodd"/></svg>
