<svg xmlns="http://www.w3.org/2000/svg" width="50" height="50" fill="none"><rect width="50" height="50" fill="#37C790" rx="15"/><path fill="#fff" fill-rule="evenodd" d="M29.722 24.954v2.93h-1.226v-2.93h-.547v-1.186h.547c0-1.152.63-1.844 1.987-1.761v1.185c-.458-.041-.76.099-.76.576h.76v1.186h-.76Zm-3.394 2.544c-.27.313-.67.502-1.218.502-1.07 0-1.953-.947-1.953-2.173 0-1.227.883-2.174 1.953-2.174.548 0 .949.19 1.218.502v-2.033h1.227v5.763h-1.227v-.387Zm-16.314-.56C9.662 27.58 8.967 28 8.166 28 6.924 28 6 27.053 6 25.827c0-1.227.924-2.174 2.166-2.174.793 0 1.496.42 1.848 1.054l-1.071.626c-.14-.288-.433-.461-.793-.461-.531 0-.924.387-.924.955s.393.955.924.955c.36 0 .662-.173.793-.462l1.07.618Zm1.538-.914v1.86h-1.226v-4.116h1.226v.733c.164-.552.711-.815 1.226-.815v1.4c-.507-.083-1.226.123-1.226.938ZM14.971 28a2.15 2.15 0 0 0 2.166-2.173 2.15 2.15 0 0 0-2.166-2.174 2.15 2.15 0 0 0-2.166 2.174A2.15 2.15 0 0 0 14.97 28Zm-.94-2.173c0 .584.408.971.94.971.531 0 .94-.387.94-.971 0-.585-.409-.972-.94-.972-.532 0-.94.387-.94.972Zm5.462 2.058.654-2.198.654 2.198h1.144l1.308-4.117h-1.308l-.588 2.207-.638-2.207h-1.144l-.638 2.207-.588-2.207H17.04l1.308 4.117h1.144Zm5.863-1.054c-.564 0-.973-.387-.973-1.004 0-.618.409-1.005.973-1.005.564 0 .972.387.972 1.005 0 .617-.408 1.004-.972 1.004ZM32.185 28c.54 0 .948-.198 1.169-.502v.387h1.226v-4.117h-1.226v2.248c0 .584-.311.848-.76.848-.393 0-.712-.239-.712-.75v-2.346h-1.226v2.528c0 1.111.703 1.704 1.529 1.704Zm4.301-2.363v2.248H35.26v-4.117h1.226v.387c.22-.304.63-.502 1.169-.502.826 0 1.529.593 1.529 1.704v2.528h-1.227v-2.347c0-.51-.318-.749-.71-.749-.45 0-.76.264-.76.848ZM41.556 28c.548 0 .948-.19 1.218-.502v.387H44v-5.763h-1.226v2.033c-.27-.313-.67-.502-1.218-.502-1.07 0-1.954.947-1.954 2.174 0 1.226.883 2.173 1.954 2.173Zm-.728-2.173c0 .617.41 1.004.973 1.004.564 0 .973-.387.973-1.004 0-.618-.409-1.005-.973-1.005-.564 0-.973.387-.973 1.005Z" clip-rule="evenodd"/></svg>