<svg xmlns="http://www.w3.org/2000/svg" width="50" height="50" fill="none"><rect width="50" height="50" fill="#21427D" rx="15"/><path fill="#3EE9E5" fill-rule="evenodd" d="M34.081 24.878a10.18 10.18 0 0 0-.093-2.42 8.172 8.172 0 0 1-11.53 11.53 10.124 10.124 0 0 0 2.42.093 6.914 6.914 0 0 0 9.203-9.203Zm0 0a6.914 6.914 0 1 0-9.204 9.203 10.06 10.06 0 0 0 9.204-9.203Zm-11.622 9.11c-4.795-.766-8.459-4.92-8.459-9.93C14 18.502 18.503 14 24.057 14c5.01 0 9.165 3.664 9.93 8.459a8.171 8.171 0 1 0-11.53 11.53Z" clip-rule="evenodd"/></svg>
