<svg xmlns="http://www.w3.org/2000/svg" width="50" height="50" fill="none"><rect width="50" height="50" fill="#1F1F1F" rx="15"/><path fill="#444" d="M14.558 24.102a1.93 1.93 0 0 1 2.605-.113l.123.113 10.142 10.141a1.93 1.93 0 0 1-2.606 2.841l-.123-.112L14.558 26.83a1.93 1.93 0 0 1 0-2.728Z"/><path fill="#fff" d="M35.182 13.017c1.007-.996 2.707-.34 2.806 1.026l.005.126v10.736c0 .9-.738 1.629-1.647 1.629a1.64 1.64 0 0 1-1.642-1.508l-.004-.121V18.1l-8.043 7.957c-1.007.995-2.707.34-2.806-1.026l-.005-.126V18.1l-8.043 7.957a1.66 1.66 0 0 1-2.223.095l-.105-.095a1.616 1.616 0 0 1-.096-2.2l.096-.104 10.853-10.736c1.007-.996 2.707-.34 2.806 1.026l.005.126v6.804l8.043-7.956Z"/></svg>