<svg xmlns="http://www.w3.org/2000/svg" width="112" height="24" fill="none"><rect width="48" height="24" x="36" fill="#fff" rx="12"/><circle cx="72" cy="12" r="7" fill="#5964E0"/><path fill="#fff" fill-rule="evenodd" d="M10 5.365c-.33 0-.612-.295-.612-.639v-1.89c0-.343.282-.638.612-.638s.612.295.612.638v1.89c0 .344-.282.639-.612.639ZM6.402 7.952A5.314 5.314 0 0 1 10 6.552c1.396 0 2.685.525 3.598 1.4.913.85 1.504 2.05 1.504 3.35 0 1.3-.59 2.5-1.504 3.35a5.314 5.314 0 0 1-3.598 1.4c-1.396 0-2.685-.525-3.598-1.4-.913-.85-1.504-2.05-1.504-3.35 0-1.3.564-2.5 1.504-3.35ZM3.059 5.71l1.483 1.438c.296.261.728.261.97 0a.649.649 0 0 0 0-.941L4.03 4.769a.698.698 0 0 0-.97 0 .649.649 0 0 0 0 .941Zm-2.4 5.196h1.948c.355 0 .658.274.658.594 0 .32-.303.594-.658.594H.658C.304 12.094 0 11.82 0 11.5c0-.32.304-.594.658-.594Zm4.853 4.946a.698.698 0 0 0-.97 0L3.059 17.29a.649.649 0 0 0 0 .941c.27.261.701.261.97 0l1.483-1.438a.649.649 0 0 0 0-.94ZM10 17.636c.33 0 .612.294.612.638v1.89c0 .344-.282.638-.612.638s-.612-.294-.612-.638v-1.89c0-.344.282-.639.612-.639Zm6.94-.346-1.482-1.438c-.296-.261-.728-.261-.97 0a.649.649 0 0 0 0 .941l1.482 1.438c.27.261.701.261.97 0a.649.649 0 0 0 0-.94Zm-.205-5.79c0-.32.303-.594.658-.594h1.949c.354 0 .658.274.658.594 0 .32-.304.594-.658.594h-1.95c-.354 0-.657-.274-.657-.594Zm-2.247-4.352c.27.261.7.261.97 0l1.483-1.438a.649.649 0 0 0 0-.941.698.698 0 0 0-.97 0l-1.483 1.438a.649.649 0 0 0 0 .94ZM106 6a6.022 6.022 0 0 0-4.232 1.768A5.89 5.89 0 0 0 100 12c0 1.642.695 3.158 1.768 4.232A5.892 5.892 0 0 0 106 18a6.022 6.022 0 0 0 4.232-1.768A6.023 6.023 0 0 0 112 12c0-.185-.009-.369-.026-.55A4.032 4.032 0 0 1 108 15a3.926 3.926 0 0 1-2.821-1.179A4.013 4.013 0 0 1 104 11c0-1.095.442-2.105 1.179-2.821A4.013 4.013 0 0 1 108 7c.716 0 1.397.19 1.982.527A5.902 5.902 0 0 0 106 6Z" clip-rule="evenodd"/></svg>
