<svg xmlns="http://www.w3.org/2000/svg" width="50" height="50" fill="none"><rect width="50" height="50" fill="#4722C6" rx="15"/><path fill="#D7E0FF" fill-rule="evenodd" d="M29.219 27.203a1.667 1.667 0 0 1-.63.117 1.626 1.626 0 0 1-1.474-.884 1.963 1.963 0 0 1-.218-.936c0-.35.073-.662.218-.936a1.626 1.626 0 0 1 1.473-.884 1.652 1.652 0 0 1 1.108.416V22h1v5.25h-.944l-.024-.378a1.557 1.557 0 0 1-.51.33ZM9 26.903V29H8v-5.25h.945l.024.378c.146-.142.316-.253.51-.33.195-.079.405-.118.63-.118a1.624 1.624 0 0 1 1.472.884c.146.274.22.586.22.936 0 .35-.074.662-.22.936-.146.274-.346.49-.6.648a1.623 1.623 0 0 1-.873.236A1.654 1.654 0 0 1 9 26.904Zm.25-.727c.167.18.378.269.633.269.254 0 .465-.09.632-.27a.954.954 0 0 0 .25-.675.954.954 0 0 0-.25-.675.825.825 0 0 0-.632-.27.825.825 0 0 0-.632.27.955.955 0 0 0-.25.675c0 .27.083.496.25.675Zm4.822 1.144c.357 0 .674-.079.952-.236.278-.158.497-.374.658-.648.16-.274.241-.586.241-.936 0-.35-.08-.662-.241-.936a1.753 1.753 0 0 0-.658-.648 1.896 1.896 0 0 0-.952-.236c-.357 0-.674.079-.954.236a1.75 1.75 0 0 0-.66.648c-.16.274-.241.586-.241.936 0 .35.08.662.241.936.161.274.381.49.66.648.28.157.597.236.954.236Zm-.632-1.145c.167.18.377.27.632.27s.465-.09.632-.27a.954.954 0 0 0 .25-.675.954.954 0 0 0-.25-.675.825.825 0 0 0-.632-.27.825.825 0 0 0-.632.27.955.955 0 0 0-.25.675c0 .27.083.496.25.675Zm4.144 1.075v-1.858c0-.278.064-.487.19-.627a.602.602 0 0 1 .463-.21c.178 0 .33.068.457.203.126.135.189.338.189.609v1.883h1v-1.858c0-.278.064-.487.191-.627a.602.602 0 0 1 .462-.21c.179 0 .33.068.457.203.126.135.19.338.19.609v1.883h1v-1.883c0-.53-.117-.943-.351-1.24-.234-.298-.562-.447-.983-.447-.266 0-.498.06-.695.178-.197.12-.353.29-.469.511-.222-.46-.6-.689-1.136-.689-.419 0-.751.147-.997.441l-.024-.371h-.945v3.5h1Zm7.996-.166a1.895 1.895 0 0 1-.952.236c-.356 0-.674-.079-.953-.236a1.748 1.748 0 0 1-.66-.648 1.815 1.815 0 0 1-.242-.936c0-.35.08-.662.242-.936a1.75 1.75 0 0 1 .66-.648c.279-.157.597-.236.953-.236.357 0 .674.079.952.236.278.158.497.374.658.648.161.274.242.586.242.936 0 .35-.08.662-.242.936-.16.274-.38.49-.658.648Zm-.952-.639a.825.825 0 0 1-.632-.27.955.955 0 0 1-.25-.675c0-.27.083-.496.25-.675a.825.825 0 0 1 .632-.27c.255 0 .466.09.633.27.166.18.25.404.25.675 0 .27-.084.496-.25.675a.825.825 0 0 1-.633.27Zm4.186 0a.825.825 0 0 1-.632-.27.954.954 0 0 1-.25-.675c0-.27.083-.496.25-.675a.825.825 0 0 1 .632-.27c.255 0 .465.09.632.27.167.18.25.404.25.675 0 .27-.083.496-.25.675a.825.825 0 0 1-.632.27Zm5.35.639a1.895 1.895 0 0 1-.952.236c-.357 0-.675-.079-.954-.236-.279-.158-.499-.374-.66-.648a1.814 1.814 0 0 1-.241-.936c0-.35.08-.662.241-.936.161-.274.381-.49.66-.648.28-.157.597-.236.954-.236.356 0 .674.079.951.236.278.158.498.374.659.648.16.274.241.586.241.936 0 .35-.08.662-.241.936-.161.274-.38.49-.659.648Zm-.952-.639a.825.825 0 0 1-.633-.27.955.955 0 0 1-.25-.675c0-.27.084-.496.25-.675a.825.825 0 0 1 .633-.27c.254 0 .465.09.632.27.167.18.25.404.25.675 0 .27-.083.496-.25.675a.825.825 0 0 1-.632.27Zm3.511-.739v1.544h-1v-3.5h.876l.048.5c.253-.38.6-.57 1.042-.57.15 0 .306.023.466.07l-.14.872a1.26 1.26 0 0 0-.395-.067.8.8 0 0 0-.65.3c-.164.199-.246.483-.246.851Zm3.425 1.614c.357 0 .674-.079.952-.236.278-.158.498-.374.659-.648.16-.274.241-.586.241-.936 0-.35-.08-.662-.241-.936a1.753 1.753 0 0 0-.659-.648 1.896 1.896 0 0 0-.952-.236c-.356 0-.674.079-.953.236a1.75 1.75 0 0 0-.66.648c-.16.274-.241.586-.241.936 0 .35.08.662.241.936.161.274.381.49.66.648.28.157.597.236.953.236Zm-.632-1.145c.167.18.378.27.633.27.254 0 .465-.09.632-.27a.955.955 0 0 0 .25-.675.955.955 0 0 0-.25-.675.825.825 0 0 0-.633-.27.825.825 0 0 0-.632.27.955.955 0 0 0-.25.675c0 .27.084.496.25.675Z" clip-rule="evenodd"/></svg>


