<svg xmlns="http://www.w3.org/2000/svg" width="50" height="50" fill="none"><rect width="50" height="50" fill="#E99210" rx="15"/><path fill="#fff" fill-rule="evenodd" d="M44.696 28.28v1.92h-3.36c-.363 0-.659-.117-.888-.352-.23-.235-.344-.533-.344-.896v-4.768h-2.352v-1.92h2.352V19h2.016v3.264h2.864v1.92H42.12V27.8c0 .32.144.48.432.48h2.144ZM8.648 30.424c1.045 0 1.856-.235 2.432-.704.576-.47.864-1.099.864-1.888v-.096c0-.715-.256-1.272-.768-1.672-.512-.4-1.173-.643-1.984-.728-.704-.075-1.19-.168-1.456-.28-.267-.112-.4-.296-.4-.552 0-.181.085-.333.256-.456.17-.123.427-.184.768-.184.373 0 .677.083.912.248.235.165.4.392.496.68l1.824-.736a3.532 3.532 0 0 0-.368-.696 2.777 2.777 0 0 0-.624-.656 3.155 3.155 0 0 0-.936-.48c-.368-.123-.803-.184-1.304-.184-.384 0-.757.053-1.12.16a2.99 2.99 0 0 0-.96.472 2.477 2.477 0 0 0-.672.76 2.06 2.06 0 0 0-.256 1.04v.096c0 .757.264 1.33.792 1.72.528.39 1.24.621 2.136.696.33.032.605.075.824.128.219.053.392.12.52.2.128.08.216.165.264.256.048.09.072.19.072.296 0 .181-.093.35-.28.504-.187.155-.53.232-1.032.232-.565 0-.984-.128-1.256-.384a1.82 1.82 0 0 1-.536-.896L5 27.928c.053.277.157.563.312.856.155.293.376.56.664.8.288.24.65.44 1.088.6.437.16.965.24 1.584.24Zm8.196 0c1.13 0 2.035-.288 2.712-.864.677-.576 1.107-1.333 1.288-2.272l-1.984-.496c-.096.523-.307.939-.632 1.248-.325.31-.797.464-1.416.464-.288 0-.56-.045-.816-.136a1.882 1.882 0 0 1-.672-.408 1.93 1.93 0 0 1-.456-.68 2.442 2.442 0 0 1-.168-.936v-.096c0-.352.056-.67.168-.952.112-.283.264-.523.456-.72.192-.197.416-.35.672-.456a2.1 2.1 0 0 1 .816-.16c.619 0 1.099.17 1.44.512.341.341.544.747.608 1.216l1.984-.512c-.181-.939-.616-1.696-1.304-2.272-.688-.576-1.587-.864-2.696-.864-.576 0-1.117.096-1.624.288a3.89 3.89 0 0 0-1.328.832c-.379.363-.675.8-.888 1.312-.213.512-.32 1.088-.32 1.728v.192c0 .64.107 1.21.32 1.712.213.501.507.923.88 1.264.373.341.813.603 1.32.784a4.833 4.833 0 0 0 1.64.272Zm9.756-.272a4.508 4.508 0 0 1-1.56.272c-.544 0-1.064-.09-1.56-.272a3.998 3.998 0 0 1-1.32-.792 3.73 3.73 0 0 1-.912-1.28c-.224-.507-.336-1.09-.336-1.752v-.192c0-.65.112-1.23.336-1.736.224-.507.528-.936.912-1.288a3.93 3.93 0 0 1 1.32-.8 4.508 4.508 0 0 1 1.56-.272c.544 0 1.064.09 1.56.272a3.93 3.93 0 0 1 1.32.8c.384.352.688.781.912 1.288.224.507.336 1.085.336 1.736v.192c0 .661-.112 1.245-.336 1.752a3.73 3.73 0 0 1-.912 1.28c-.384.347-.824.61-1.32.792Zm-1.56-1.648c-.288 0-.56-.048-.816-.144a1.98 1.98 0 0 1-.672-.416 1.964 1.964 0 0 1-.456-.664 2.234 2.234 0 0 1-.168-.888v-.32c0-.33.056-.627.168-.888.112-.261.264-.483.456-.664a1.98 1.98 0 0 1 .672-.416c.256-.096.528-.144.816-.144.288 0 .56.048.816.144.256.096.48.235.672.416.192.181.344.403.456.664.112.261.168.557.168.888v.32c0 .33-.056.627-.168.888a1.964 1.964 0 0 1-.456.664 1.98 1.98 0 0 1-.672.416 2.305 2.305 0 0 1-.816.144Zm9.852 1.648a4.508 4.508 0 0 1-1.56.272c-.544 0-1.064-.09-1.56-.272a3.998 3.998 0 0 1-1.32-.792 3.73 3.73 0 0 1-.912-1.28c-.224-.507-.336-1.09-.336-1.752v-.192c0-.65.112-1.23.336-1.736.224-.507.528-.936.912-1.288a3.93 3.93 0 0 1 1.32-.8 4.508 4.508 0 0 1 1.56-.272c.544 0 1.064.09 1.56.272a3.93 3.93 0 0 1 1.32.8c.384.352.688.781.912 1.288.224.507.336 1.085.336 1.736v.192c0 .661-.112 1.245-.336 1.752a3.73 3.73 0 0 1-.912 1.28c-.384.347-.824.61-1.32.792Zm-1.56-1.648c-.288 0-.56-.048-.816-.144a1.98 1.98 0 0 1-.672-.416 1.964 1.964 0 0 1-.456-.664 2.234 2.234 0 0 1-.168-.888v-.32c0-.33.056-.627.168-.888.112-.261.264-.483.456-.664a1.98 1.98 0 0 1 .672-.416c.256-.096.528-.144.816-.144.288 0 .56.048.816.144.256.096.48.235.672.416.192.181.344.403.456.664.112.261.168.557.168.888v.32c0 .33-.056.627-.168.888a1.964 1.964 0 0 1-.456.664 1.98 1.98 0 0 1-.672.416 2.305 2.305 0 0 1-.816.144Z" clip-rule="evenodd"/></svg>
