<svg xmlns="http://www.w3.org/2000/svg" width="50" height="50" fill="none"><rect width="50" height="50" fill="#F16718" rx="15"/><path fill="#fff" d="M13 13h24v24H13z"/><path fill="#F16718" fill-rule="evenodd" d="M19.378 23.02c0 .114-.064.18-.173.18H17.84c-.109 0-.173-.066-.173-.18v-4.817c0-.047-.027-.076-.073-.076h-1.42c-.11 0-.173-.066-.173-.179V16.78c0-.113.064-.179.173-.179h4.744c.11 0 .173.066.173.18v1.168c0 .113-.064.18-.173.18H19.45c-.046 0-.073.028-.073.075v4.818Zm3.943 0c0 .114-.064.18-.173.18h-1.366c-.11 0-.173-.066-.173-.18v-6.24c0-.114.064-.18.173-.18h1.357c.09 0 .164.038.21.123l1.1 1.857c.028.057.083.057.11 0l1.102-1.857a.222.222 0 0 1 .21-.123h1.356c.11 0 .173.066.173.18v6.24c0 .114-.064.18-.173.18h-1.366c-.11 0-.173-.066-.173-.18v-3.327c0-.076-.054-.085-.09-.029l-.565.971a.222.222 0 0 1-.21.123h-.637a.222.222 0 0 1-.21-.123l-.564-.97c-.037-.057-.091-.048-.091.028v3.328Z" clip-rule="evenodd"/></svg>