<svg xmlns="http://www.w3.org/2000/svg" width="50" height="50" fill="none"><rect width="50" height="50" fill="#34353F" rx="15"/><path fill="#fff" fill-rule="evenodd" d="M21.652 26c.555 0 1.015-.047 1.38-.141.364-.094.64-.236.826-.424.188-.188.288-.422.303-.701h-1.14a.556.556 0 0 1-.194.214 1.133 1.133 0 0 1-.419.156 3.93 3.93 0 0 1-.756.058c-.375 0-.679-.022-.913-.066-.234-.044-.405-.114-.513-.208a.462.462 0 0 1-.162-.366c0-.165.054-.297.162-.397.108-.1.28-.173.513-.218.234-.046.538-.069.913-.069.319 0 .572.02.759.062.187.041.327.098.42.17a.565.565 0 0 1 .194.25h1.14a1.092 1.092 0 0 0-.302-.72c-.187-.197-.464-.346-.83-.448-.365-.101-.826-.152-1.381-.152-.424 0-.804.025-1.14.075-.337.05-.624.133-.86.25a1.316 1.316 0 0 0-.544.467c-.126.195-.19.439-.19.73s.064.532.19.724c.125.19.307.341.543.452.237.11.524.188.86.234.337.045.717.068 1.14.068Zm-10.739-2.912L9.23 25.912H7.702L6 23.088h1.237l1.228 2.296 1.229-2.296h1.22Zm6.196 1.985v.839h-4.43v-2.824H17.1v.838h-3.325v.353h2.72v.442h-2.72v.352h3.333Zm11.564-1.146v1.985h-1.097v-1.985h-1.733v-.839h4.563v.838h-1.733ZM34.606 26c.637 0 1.15-.057 1.54-.17.389-.113.672-.28.848-.503.177-.222.266-.498.266-.827 0-.33-.089-.605-.266-.827-.176-.222-.46-.39-.848-.503-.39-.113-.903-.17-1.54-.17-.638 0-1.151.057-1.54.17-.389.113-.672.28-.849.503-.177.222-.265.498-.265.827 0 .33.088.605.265.827.177.222.46.39.85.503.388.113.901.17 1.539.17Zm-.792-.893c.227.036.49.055.792.055.301 0 .561-.019.78-.055.22-.037.39-.103.51-.199a.492.492 0 0 0 .18-.408.492.492 0 0 0-.18-.408c-.12-.096-.29-.162-.51-.199a4.789 4.789 0 0 0-.78-.055c-.301 0-.565.019-.792.055-.227.037-.404.103-.53.199a.48.48 0 0 0-.192.408.48.48 0 0 0 .191.408c.127.096.304.162.531.199Zm6.484.805v-.794h1.715c.234 0 .407.009.52.026.112.018.185.05.219.095.034.046.05.113.05.2v.473H43.9v-.605c0-.13-.037-.228-.112-.297-.074-.07-.206-.117-.395-.144a2.908 2.908 0 0 0-.11-.013l-.039-.004.077-.014c.105-.02.201-.052.288-.094l.063-.034a.63.63 0 0 0 .241-.247.823.823 0 0 0 .088-.401c0-.244-.062-.437-.186-.578a1.027 1.027 0 0 0-.505-.302 2.622 2.622 0 0 0-.717-.09H39.2v2.823h1.097Zm0-1.531h2.294a.5.5 0 0 0 .221-.044c.06-.03.09-.085.09-.168 0-.076-.03-.129-.09-.157a.524.524 0 0 0-.221-.041h-2.294v.41Z" clip-rule="evenodd"/></svg>